<?xml version="1.0" encoding="UTF-8"?>
<svg id="_Слой_1" data-name="Слой 1" xmlns="http://www.w3.org/2000/svg" viewBox="0 0 1600 1400">
  <defs>
    <style>
      .cls-1 {
        letter-spacing: 0em;
      }

      .cls-2 {
        font-size: 24px;
      }

      .cls-2, .cls-3, .cls-4 {
        font-family: TimesNewRomanPSMT, 'Times New Roman';
      }

      .cls-5 {
        letter-spacing: -.02em;
      }

      .cls-6 {
        stroke-dasharray: 0 0 12.53 12.53;
      }

      .cls-6, .cls-7, .cls-8 {
        fill: none;
        stroke: #000;
        stroke-miterlimit: 10;
      }

      .cls-9 {
        letter-spacing: -.02em;
      }

      .cls-10 {
        letter-spacing: -.01em;
      }

      .cls-11 {
        letter-spacing: -.04em;
      }

      .cls-12 {
        letter-spacing: -.04em;
      }

      .cls-13 {
        letter-spacing: -.05em;
      }

      .cls-14 {
        letter-spacing: -.03em;
      }

      .cls-3 {
        font-size: 36px;
      }

      .cls-4 {
        font-size: 21px;
      }

      .cls-8 {
        stroke-dasharray: 0 0 12.57 12.57;
      }
    </style>
  </defs>
  <g>
    <rect class="cls-7" x="100" y="100" width="200" height="100" rx="46.91" ry="46.91"/>
    <text class="cls-3" transform="translate(144.55 162.51)"><tspan x="0" y="0">Н</tspan><tspan class="cls-11" x="26" y="0">а</tspan><tspan x="40.54" y="0">ч</tspan><tspan class="cls-1" x="58.64" y="0">а</tspan><tspan x="74.94" y="0">ло</tspan></text>
  </g>
  <g>
    <rect class="cls-7" x="100" y="300" width="200" height="100"/>
    <text class="cls-3" transform="translate(140.35 340.91)"><tspan x="0" y="0">Импо</tspan><tspan class="cls-10" x="86.04" y="0">р</tspan><tspan x="103.57" y="0">т </tspan><tspan x="-4.19" y="43.2">м</tspan><tspan class="cls-14" x="18.59" y="43.2">о</tspan><tspan x="35.55" y="43.2">д</tspan><tspan class="cls-12" x="53.87" y="43.2">у</tspan><tspan x="70.29" y="43.2">лей</tspan></text>
  </g>
  <g>
    <path class="cls-7" d="m430,300h-30v100h30"/>
    <text class="cls-3" transform="translate(410 362.51)"><tspan x="0" y="0">numpy</tspan></text>
  </g>
  <g>
    <line class="cls-7" x1="300" y1="350" x2="306" y2="350"/>
    <line class="cls-8" x1="318.57" y1="350" x2="387.71" y2="350"/>
    <line class="cls-7" x1="394" y1="350" x2="400" y2="350"/>
  </g>
  <line class="cls-7" x1="200" y1="200" x2="200" y2="300"/>
  <g>
    <rect class="cls-7" x="100" y="500" width="200" height="100"/>
    <text class="cls-2" transform="translate(138.81 543.94)"><tspan x="0" y="0">О</tspan><tspan class="cls-9" x="17.33" y="0">б</tspan><tspan x="28.95" y="0">ъя</tspan><tspan class="cls-10" x="52.39" y="0">в</tspan><tspan x="63.41" y="0">ление </tspan><tspan class="cls-9" x="-24.78" y="28.8">ф</tspan><tspan x="-9.83" y="28.8">ункции alpha(f)</tspan></text>
  </g>
  <line class="cls-7" x1="200" y1="400" x2="200" y2="500"/>
  <polyline class="cls-7" points="300 700 300 650 200 650 200 600"/>
  <g>
    <rect class="cls-7" x="900" y="1200" width="200" height="100" rx="46.91" ry="46.91"/>
    <text class="cls-3" transform="translate(952.64 1262.51)"><tspan class="cls-13" x="0" y="0">К</tspan><tspan x="22.22" y="0">онец</tspan></text>
  </g>
  <g>
    <polyline class="cls-7" points="400 894 400 900 394 900"/>
    <line class="cls-6" x1="381.47" y1="900" x2="212.27" y2="900"/>
    <polyline class="cls-7" points="206 900 200 900 200 894"/>
    <line class="cls-6" x1="200" y1="881.47" x2="200" y2="712.27"/>
    <polyline class="cls-7" points="200 706 200 700 206 700"/>
    <line class="cls-6" x1="218.53" y1="700" x2="387.73" y2="700"/>
    <polyline class="cls-7" points="394 700 400 700 400 706"/>
    <line class="cls-6" x1="400" y1="718.53" x2="400" y2="887.73"/>
  </g>
  <g>
    <path class="cls-7" d="m530,700h-30v200h30"/>
    <text class="cls-4" transform="translate(510 731.7)"><tspan x="0" y="0">Подобно рис. 5.2.1, </tspan><tspan x="0" y="25.2">единственное </tspan><tspan x="0" y="50.4">исключение - </tspan><tspan x="0" y="75.6">интегрирование </tspan><tspan x="0" y="100.8">происходит с </tspan><tspan x="0" y="126">помощью функции, </tspan><tspan x="0" y="151.2">описанной далее</tspan></text>
  </g>
  <g>
    <line class="cls-7" x1="400" y1="800" x2="406" y2="800"/>
    <line class="cls-8" x1="418.57" y1="800" x2="487.71" y2="800"/>
    <line class="cls-7" x1="494" y1="800" x2="500" y2="800"/>
  </g>
  <g>
    <rect class="cls-7" x="900" y="100" width="200" height="100"/>
    <text class="cls-4" transform="translate(904.46 144.7)"><tspan x="0" y="0">О</tspan><tspan class="cls-9" x="15.17" y="0">б</tspan><tspan x="25.33" y="0">ъя</tspan><tspan class="cls-10" x="45.85" y="0">в</tspan><tspan x="55.48" y="0">ление </tspan><tspan class="cls-9" x="112.33" y="0">ф</tspan><tspan x="125.42" y="0">ункции </tspan><tspan x="-3.59" y="25.2">integrate(function, a, b)</tspan></text>
  </g>
  <polyline class="cls-7" points="1200 250 1200 225 1000 225 1000 200"/>
  <g>
    <rect class="cls-7" x="1100" y="250" width="200" height="100"/>
    <text class="cls-3" transform="translate(1108.22 290.91)"><tspan x="0" y="0">О</tspan><tspan class="cls-9" x="26" y="0">б</tspan><tspan x="43.42" y="0">ъя</tspan><tspan class="cls-10" x="78.59" y="0">в</tspan><tspan x="95.12" y="0">ление </tspan><tspan x="-2.57" y="43.2">переменных</tspan></text>
  </g>
  <g>
    <polygon class="cls-7" points="1300 430 1300 500 1100 500 1100 430 1130 400 1270 400 1300 430"/>
    <text class="cls-3" transform="translate(1146.14 440.91)"><tspan x="0" y="0">Цикл 1</tspan><tspan x="-22.89" y="43.2">по</tspan><tspan class="cls-5" x="14.38" y="43.2">к</tspan><tspan x="31.32" y="43.2">а x &lt; b</tspan></text>
  </g>
  <g>
    <rect class="cls-7" x="1100" y="550" width="200" height="100"/>
    <g>
      <path d="m1108.62,582.89v8.62c0,.67.05,1.12.15,1.34s.24.39.43.5.54.16,1.05.16v.42h-5.21v-.42c.52,0,.88-.05,1.05-.15s.32-.27.43-.5.16-.68.16-1.35v-4.14c0-1.16-.04-1.92-.11-2.26-.05-.25-.14-.42-.26-.52s-.28-.15-.48-.15c-.22,0-.48.06-.8.18l-.16-.42,3.23-1.31h.52Zm-.97-5.61c.33,0,.61.12.84.35s.35.51.35.84-.12.61-.35.84-.51.35-.84.35-.61-.12-.84-.35-.35-.52-.35-.84.12-.61.35-.84.51-.35.85-.35Z"/>
      <path d="m1114.71,585.16c1.26-1.52,2.46-2.27,3.6-2.27.59,0,1.09.15,1.51.44s.76.78,1.01,1.45c.17.47.26,1.19.26,2.16v4.58c0,.68.05,1.14.16,1.38.09.2.22.35.42.46s.54.16,1.06.16v.42h-5.31v-.42h.22c.5,0,.85-.08,1.05-.23s.34-.38.42-.67c.03-.12.05-.48.05-1.1v-4.39c0-.98-.13-1.69-.38-2.13s-.68-.66-1.28-.66c-.93,0-1.86.51-2.78,1.52v5.66c0,.73.04,1.18.13,1.35.11.23.26.39.45.5s.58.16,1.17.16v.42h-5.31v-.42h.23c.55,0,.92-.14,1.11-.42s.29-.81.29-1.59v-3.98c0-1.29-.03-2.07-.09-2.36s-.15-.47-.27-.57-.28-.15-.49-.15c-.22,0-.48.06-.79.18l-.18-.42,3.23-1.31h.5v2.27Z"/>
      <path d="m1126.7,579.68v3.53h2.51v.82h-2.51v6.96c0,.7.1,1.16.3,1.41s.46.36.77.36c.26,0,.51-.08.75-.24s.43-.4.56-.71h.46c-.27.77-.66,1.34-1.16,1.73s-1.02.58-1.55.58c-.36,0-.71-.1-1.05-.3s-.6-.48-.76-.86-.25-.94-.25-1.72v-7.22h-1.7v-.39c.43-.17.87-.46,1.32-.87s.85-.9,1.2-1.46c.18-.3.43-.84.75-1.63h.36Z"/>
      <path d="m1132.05,587.25c0,1.59.38,2.84,1.16,3.75s1.7,1.36,2.75,1.36c.7,0,1.31-.19,1.83-.58s.96-1.05,1.31-1.99l.36.23c-.16,1.07-.64,2.04-1.43,2.92s-1.78,1.32-2.96,1.32c-1.29,0-2.39-.5-3.31-1.51s-1.38-2.35-1.38-4.05c0-1.84.47-3.27,1.41-4.29s2.12-1.54,3.54-1.54c1.2,0,2.19.4,2.96,1.19s1.16,1.85,1.16,3.18h-7.42Zm0-.68h4.97c-.04-.69-.12-1.17-.25-1.45-.2-.44-.49-.78-.87-1.03s-.79-.38-1.21-.38c-.65,0-1.23.25-1.74.76s-.81,1.21-.9,2.1Z"/>
      <path d="m1143.77,590.03c-.66-.32-1.16-.77-1.51-1.34s-.53-1.21-.53-1.9c0-1.06.4-1.98,1.2-2.74s1.83-1.15,3.08-1.15c1.02,0,1.91.25,2.66.75h2.27c.34,0,.53,0,.59.03s.09.05.12.1c.05.07.07.2.07.38,0,.2-.02.34-.06.42-.02.04-.06.07-.12.09s-.26.04-.59.04h-1.39c.44.56.66,1.28.66,2.16,0,1-.38,1.86-1.15,2.57s-1.79,1.07-3.08,1.07c-.53,0-1.07-.08-1.63-.23-.34.3-.58.56-.7.78s-.18.41-.18.57c0,.13.06.26.19.39s.38.21.76.27c.22.03.77.06,1.64.08,1.61.04,2.65.09,3.13.16.73.1,1.31.37,1.74.81s.65.98.65,1.62c0,.88-.41,1.71-1.24,2.48-1.22,1.14-2.81,1.71-4.77,1.71-1.51,0-2.78-.34-3.82-1.02-.59-.39-.88-.8-.88-1.22,0-.19.04-.38.13-.56.13-.29.41-.69.82-1.21.05-.07.45-.49,1.2-1.27-.41-.24-.69-.46-.86-.65s-.25-.41-.25-.65c0-.27.11-.59.33-.96s.74-.89,1.54-1.56Zm-.12,3.91c-.37.4-.64.77-.83,1.11s-.28.66-.28.95c0,.38.23.7.68.98.78.48,1.91.73,3.39.73s2.44-.25,3.11-.74,1-1.03,1-1.59c0-.41-.2-.7-.6-.87-.41-.17-1.21-.27-2.41-.3-1.76-.05-3.11-.14-4.05-.27Zm2.16-10.49c-.58,0-1.06.23-1.45.69s-.59,1.17-.59,2.12c0,1.23.27,2.19.8,2.87.41.52.92.77,1.55.77s1.08-.22,1.46-.67.57-1.14.57-2.1c0-1.24-.27-2.21-.81-2.92-.4-.52-.91-.77-1.54-.77Z"/>
      <path d="m1156.04,582.89v2.41c.9-1.61,1.82-2.41,2.77-2.41.43,0,.79.13,1.07.39s.42.56.42.91c0,.3-.1.56-.3.77s-.45.32-.73.32-.58-.13-.92-.4-.59-.4-.76-.4c-.14,0-.29.08-.46.23-.35.32-.71.85-1.09,1.58v5.14c0,.59.07,1.04.22,1.35.1.21.28.39.54.53s.63.21,1.11.21v.42h-5.5v-.42c.55,0,.95-.09,1.22-.26.2-.12.33-.32.41-.6.04-.13.06-.51.06-1.14v-4.16c0-1.25-.03-1.99-.08-2.23s-.14-.41-.28-.52-.31-.16-.51-.16c-.24,0-.52.06-.82.18l-.12-.42,3.25-1.31h.49Z"/>
      <path d="m1166.98,592.39c-1.1.85-1.79,1.34-2.07,1.48-.42.2-.87.29-1.35.29-.74,0-1.35-.25-1.83-.76s-.72-1.18-.72-2c0-.52.12-.98.35-1.36.32-.53.88-1.03,1.67-1.5s2.11-1.04,3.96-1.71v-.42c0-1.07-.17-1.8-.51-2.2s-.83-.6-1.48-.6c-.49,0-.88.13-1.17.4-.3.27-.45.57-.45.91l.02.68c0,.36-.09.64-.28.83s-.42.29-.72.29-.53-.1-.71-.3-.28-.48-.28-.83c0-.67.34-1.29,1.03-1.85s1.65-.84,2.89-.84c.95,0,1.73.16,2.34.48.46.24.8.62,1.02,1.14.14.34.21,1.02.21,2.06v3.64c0,1.02.02,1.65.06,1.88s.1.38.19.46.19.12.31.12c.12,0,.23-.03.33-.08.16-.1.48-.39.95-.86v.66c-.88,1.17-1.71,1.76-2.51,1.76-.38,0-.69-.13-.91-.4s-.34-.72-.35-1.36Zm0-.76v-4.09c-1.18.47-1.94.8-2.29,1-.62.34-1.06.7-1.32,1.08s-.4.79-.4,1.23c0,.56.17,1.03.5,1.4s.72.56,1.16.56c.59,0,1.38-.39,2.34-1.17Z"/>
      <path d="m1175.24,577.28v14.24c0,.67.05,1.12.15,1.34s.25.38.45.5.58.17,1.14.17v.42h-5.26v-.42c.49,0,.83-.05,1.01-.15s.32-.27.42-.5.15-.68.15-1.35v-9.75c0-1.21-.03-1.96-.08-2.23s-.14-.47-.26-.57-.28-.15-.46-.15c-.2,0-.46.06-.77.19l-.2-.41,3.2-1.31h.53Z"/>
      <path d="m1183.9,583.59h12.64v.96h-12.64v-.96Zm0,3.82h12.64v.96h-12.64v-.96Z"/>
      <path d="m1207.45,582.89v8.62c0,.67.05,1.12.15,1.34s.24.39.43.5.54.16,1.05.16v.42h-5.21v-.42c.52,0,.88-.05,1.05-.15s.32-.27.43-.5.16-.68.16-1.35v-4.14c0-1.16-.04-1.92-.11-2.26-.05-.25-.14-.42-.26-.52s-.28-.15-.48-.15c-.22,0-.48.06-.8.18l-.16-.42,3.23-1.31h.52Zm-.97-5.61c.33,0,.61.12.84.35s.35.51.35.84-.12.61-.35.84-.51.35-.84.35-.61-.12-.84-.35-.35-.52-.35-.84.12-.61.35-.84.51-.35.85-.35Z"/>
      <path d="m1213.55,585.16c1.26-1.52,2.46-2.27,3.6-2.27.59,0,1.09.15,1.51.44s.76.78,1.01,1.45c.17.47.26,1.19.26,2.16v4.58c0,.68.05,1.14.16,1.38.09.2.22.35.42.46s.54.16,1.06.16v.42h-5.31v-.42h.22c.5,0,.85-.08,1.05-.23s.34-.38.42-.67c.03-.12.05-.48.05-1.1v-4.39c0-.98-.13-1.69-.38-2.13s-.68-.66-1.28-.66c-.93,0-1.86.51-2.78,1.52v5.66c0,.73.04,1.18.13,1.35.11.23.26.39.45.5s.58.16,1.17.16v.42h-5.31v-.42h.23c.55,0,.92-.14,1.11-.42s.29-.81.29-1.59v-3.98c0-1.29-.03-2.07-.09-2.36s-.15-.47-.27-.57-.28-.15-.49-.15c-.22,0-.48.06-.79.18l-.18-.42,3.23-1.31h.5v2.27Z"/>
      <path d="m1225.54,579.68v3.53h2.51v.82h-2.51v6.96c0,.7.1,1.16.3,1.41s.46.36.77.36c.26,0,.51-.08.75-.24s.43-.4.56-.71h.46c-.27.77-.66,1.34-1.16,1.73s-1.02.58-1.55.58c-.36,0-.71-.1-1.05-.3s-.6-.48-.76-.86-.25-.94-.25-1.72v-7.22h-1.7v-.39c.43-.17.87-.46,1.32-.87s.85-.9,1.2-1.46c.18-.3.43-.84.75-1.63h.36Z"/>
      <path d="m1230.89,587.25c0,1.59.38,2.84,1.16,3.75s1.7,1.36,2.75,1.36c.7,0,1.31-.19,1.83-.58s.96-1.05,1.31-1.99l.36.23c-.16,1.07-.64,2.04-1.43,2.92s-1.78,1.32-2.96,1.32c-1.29,0-2.39-.5-3.31-1.51s-1.38-2.35-1.38-4.05c0-1.84.47-3.27,1.41-4.29s2.12-1.54,3.54-1.54c1.2,0,2.19.4,2.96,1.19s1.16,1.85,1.16,3.18h-7.42Zm0-.68h4.97c-.04-.69-.12-1.17-.25-1.45-.2-.44-.49-.78-.87-1.03s-.79-.38-1.21-.38c-.65,0-1.23.25-1.74.76s-.81,1.21-.9,2.1Z"/>
      <path d="m1242.61,590.03c-.66-.32-1.16-.77-1.51-1.34s-.53-1.21-.53-1.9c0-1.06.4-1.98,1.2-2.74s1.83-1.15,3.08-1.15c1.02,0,1.91.25,2.66.75h2.27c.34,0,.53,0,.59.03s.09.05.12.1c.05.07.07.2.07.38,0,.2-.02.34-.06.42-.02.04-.06.07-.12.09s-.26.04-.59.04h-1.39c.44.56.66,1.28.66,2.16,0,1-.38,1.86-1.15,2.57s-1.79,1.07-3.08,1.07c-.53,0-1.07-.08-1.63-.23-.34.3-.58.56-.7.78s-.18.41-.18.57c0,.13.06.26.19.39s.38.21.76.27c.22.03.77.06,1.64.08,1.61.04,2.65.09,3.13.16.73.1,1.31.37,1.74.81s.65.98.65,1.62c0,.88-.41,1.71-1.24,2.48-1.22,1.14-2.81,1.71-4.77,1.71-1.51,0-2.78-.34-3.82-1.02-.59-.39-.88-.8-.88-1.22,0-.19.04-.38.13-.56.13-.29.41-.69.82-1.21.05-.07.45-.49,1.2-1.27-.41-.24-.69-.46-.86-.65s-.25-.41-.25-.65c0-.27.11-.59.33-.96s.74-.89,1.54-1.56Zm-.12,3.91c-.37.4-.64.77-.83,1.11s-.28.66-.28.95c0,.38.23.7.68.98.78.48,1.91.73,3.39.73s2.44-.25,3.11-.74,1-1.03,1-1.59c0-.41-.2-.7-.6-.87-.41-.17-1.21-.27-2.41-.3-1.76-.05-3.11-.14-4.05-.27Zm2.16-10.49c-.58,0-1.06.23-1.45.69s-.59,1.17-.59,2.12c0,1.23.27,2.19.8,2.87.41.52.92.77,1.55.77s1.08-.22,1.46-.67.57-1.14.57-2.1c0-1.24-.27-2.21-.81-2.92-.4-.52-.91-.77-1.54-.77Z"/>
      <path d="m1254.88,582.89v2.41c.9-1.61,1.82-2.41,2.77-2.41.43,0,.79.13,1.07.39s.42.56.42.91c0,.3-.1.56-.3.77s-.45.32-.73.32-.58-.13-.92-.4-.59-.4-.76-.4c-.14,0-.29.08-.46.23-.35.32-.71.85-1.09,1.58v5.14c0,.59.07,1.04.22,1.35.1.21.28.39.54.53s.63.21,1.11.21v.42h-5.5v-.42c.55,0,.95-.09,1.22-.26.2-.12.33-.32.41-.6.04-.13.06-.51.06-1.14v-4.16c0-1.25-.03-1.99-.08-2.23s-.14-.41-.28-.52-.31-.16-.51-.16c-.24,0-.52.06-.82.18l-.12-.42,3.25-1.31h.49Z"/>
      <path d="m1265.81,592.39c-1.1.85-1.79,1.34-2.07,1.48-.42.2-.87.29-1.35.29-.74,0-1.35-.25-1.83-.76s-.72-1.18-.72-2c0-.52.12-.98.35-1.36.32-.53.88-1.03,1.67-1.5s2.11-1.04,3.96-1.71v-.42c0-1.07-.17-1.8-.51-2.2s-.83-.6-1.48-.6c-.49,0-.88.13-1.17.4-.3.27-.45.57-.45.91l.02.68c0,.36-.09.64-.28.83s-.42.29-.72.29-.53-.1-.71-.3-.28-.48-.28-.83c0-.67.34-1.29,1.03-1.85s1.65-.84,2.89-.84c.95,0,1.73.16,2.34.48.46.24.8.62,1.02,1.14.14.34.21,1.02.21,2.06v3.64c0,1.02.02,1.65.06,1.88s.1.38.19.46.19.12.31.12c.12,0,.23-.03.33-.08.16-.1.48-.39.95-.86v.66c-.88,1.17-1.71,1.76-2.51,1.76-.38,0-.69-.13-.91-.4s-.34-.72-.35-1.36Zm0-.76v-4.09c-1.18.47-1.94.8-2.29,1-.62.34-1.06.7-1.32,1.08s-.4.79-.4,1.23c0,.56.17,1.03.5,1.4s.72.56,1.16.56c.59,0,1.38-.39,2.34-1.17Z"/>
      <path d="m1274.07,577.28v14.24c0,.67.05,1.12.15,1.34s.25.38.45.5.58.17,1.14.17v.42h-5.26v-.42c.49,0,.83-.05,1.01-.15s.32-.27.42-.5.15-.68.15-1.35v-9.75c0-1.21-.03-1.96-.08-2.23s-.14-.47-.26-.57-.28-.15-.46-.15c-.2,0-.46.06-.77.19l-.2-.41,3.2-1.31h.53Z"/>
      <path d="m1288.57,592.29v-5.85h-5.84v-.96h5.84v-5.82h.94v5.82h5.86v.96h-5.86v5.85h-.94Z"/>
      <path d="m1125.29,621.09v-5.85h-5.84v-.96h5.84v-5.82h.94v5.82h5.86v.96h-5.86v5.85h-.94Z"/>
      <path d="m1141.96,612.85v7.05c0,1,.11,1.63.33,1.9.29.34.68.52,1.16.52h.97v.42h-6.41v-.42h.48c.31,0,.6-.08.86-.23s.44-.37.53-.63.15-.78.15-1.55v-7.05h-2.09v-.84h2.09v-.7c0-1.07.17-1.98.52-2.72s.87-1.34,1.58-1.8,1.5-.69,2.38-.69c.82,0,1.57.27,2.26.8.45.35.68.75.68,1.18,0,.23-.1.46-.3.66s-.42.31-.66.31c-.18,0-.37-.06-.57-.19s-.44-.41-.73-.83-.55-.71-.8-.86-.51-.22-.81-.22c-.36,0-.66.1-.91.29s-.43.49-.54.89-.16,1.44-.16,3.11v.77h2.77v.84h-2.77Z"/>
      <path d="m1155.17,612.01v6.5c0,1.24.03,2,.09,2.28s.15.47.28.58.28.16.45.16c.24,0,.52-.07.82-.2l.16.41-3.21,1.32h-.53v-2.27c-.92,1-1.62,1.63-2.11,1.89s-1,.39-1.54.39c-.6,0-1.12-.17-1.56-.52s-.75-.79-.92-1.34-.26-1.32-.26-2.32v-4.79c0-.51-.05-.86-.16-1.05s-.27-.35-.49-.45-.6-.15-1.17-.15v-.43h3.76v7.18c0,1,.17,1.66.52,1.97s.77.47,1.26.47c.34,0,.72-.11,1.14-.32s.93-.61,1.52-1.21v-6.08c0-.61-.11-1.02-.33-1.24s-.69-.33-1.39-.35v-.43h3.66Z"/>
      <path d="m1160.89,613.96c1.26-1.52,2.46-2.27,3.6-2.27.59,0,1.09.15,1.51.44s.76.78,1.01,1.45c.17.47.26,1.19.26,2.16v4.58c0,.68.05,1.14.16,1.38.09.2.22.35.42.46s.54.16,1.06.16v.42h-5.31v-.42h.22c.5,0,.85-.08,1.05-.23s.34-.38.42-.67c.03-.12.05-.48.05-1.1v-4.39c0-.98-.13-1.69-.38-2.13s-.68-.66-1.28-.66c-.93,0-1.86.51-2.78,1.52v5.66c0,.73.04,1.18.13,1.35.11.23.26.39.45.5s.58.16,1.17.16v.42h-5.31v-.42h.23c.55,0,.92-.14,1.11-.42s.29-.81.29-1.59v-3.98c0-1.29-.03-2.07-.09-2.36s-.15-.47-.27-.57-.28-.15-.49-.15c-.22,0-.48.06-.79.18l-.18-.42,3.23-1.31h.5v2.27Z"/>
      <path d="m1178.88,618.66c-.29,1.41-.86,2.5-1.7,3.26s-1.78,1.14-2.8,1.14c-1.22,0-2.28-.51-3.19-1.54s-1.36-2.41-1.36-4.15.5-3.06,1.51-4.11,2.21-1.58,3.62-1.58c1.05,0,1.92.28,2.6.84s1.02,1.14,1.02,1.74c0,.3-.1.54-.29.72s-.46.28-.8.28c-.46,0-.81-.15-1.04-.45-.13-.16-.22-.48-.26-.94s-.2-.81-.47-1.05c-.27-.23-.65-.35-1.14-.35-.78,0-1.41.29-1.89.87-.63.77-.95,1.78-.95,3.04s.31,2.41.94,3.39,1.48,1.47,2.55,1.47c.77,0,1.45-.26,2.06-.79.43-.36.85-1.01,1.25-1.96l.34.16Z"/>
      <path d="m1183.53,608.48v3.53h2.51v.82h-2.51v6.96c0,.7.1,1.16.3,1.41s.46.36.77.36c.26,0,.51-.08.75-.24s.43-.4.56-.71h.46c-.27.77-.66,1.34-1.16,1.73s-1.02.58-1.55.58c-.36,0-.71-.1-1.05-.3s-.6-.48-.76-.86-.25-.94-.25-1.72v-7.22h-1.7v-.39c.43-.17.87-.46,1.32-.87s.85-.9,1.2-1.46c.18-.3.43-.84.75-1.63h.36Z"/>
      <path d="m1190.78,611.69v8.62c0,.67.05,1.12.15,1.34s.24.39.43.5.54.16,1.05.16v.42h-5.21v-.42c.52,0,.88-.05,1.05-.15s.32-.27.43-.5.16-.68.16-1.35v-4.14c0-1.16-.04-1.92-.11-2.26-.05-.25-.14-.42-.26-.52s-.28-.15-.48-.15c-.22,0-.48.06-.8.18l-.16-.42,3.23-1.31h.52Zm-.97-5.61c.33,0,.61.12.84.35s.35.51.35.84-.12.61-.35.84-.51.35-.84.35-.61-.12-.84-.35-.35-.52-.35-.84.12-.61.35-.84.51-.35.85-.35Z"/>
      <path d="m1199,611.69c1.62,0,2.93.62,3.91,1.85.84,1.05,1.25,2.27,1.25,3.63,0,.96-.23,1.93-.69,2.92s-1.1,1.73-1.9,2.23-1.71.75-2.7.75c-1.62,0-2.9-.64-3.86-1.93-.8-1.09-1.21-2.3-1.21-3.66,0-.98.24-1.96.73-2.94s1.13-1.69,1.93-2.16,1.64-.7,2.53-.7Zm-.36.76c-.41,0-.83.12-1.25.37s-.76.68-1.01,1.29-.39,1.41-.39,2.38c0,1.56.31,2.91.93,4.04s1.44,1.7,2.46,1.7c.76,0,1.38-.31,1.88-.94s.74-1.7.74-3.22c0-1.91-.41-3.41-1.23-4.5-.55-.75-1.26-1.12-2.12-1.12Z"/>
      <path d="m1208.88,613.96c1.26-1.52,2.46-2.27,3.6-2.27.59,0,1.09.15,1.51.44s.76.78,1.01,1.45c.17.47.26,1.19.26,2.16v4.58c0,.68.05,1.14.16,1.38.09.2.22.35.42.46s.54.16,1.06.16v.42h-5.31v-.42h.22c.5,0,.85-.08,1.05-.23s.34-.38.42-.67c.03-.12.05-.48.05-1.1v-4.39c0-.98-.13-1.69-.38-2.13s-.68-.66-1.28-.66c-.93,0-1.86.51-2.78,1.52v5.66c0,.73.04,1.18.13,1.35.11.23.26.39.45.5s.58.16,1.17.16v.42h-5.31v-.42h.23c.55,0,.92-.14,1.11-.42s.29-.81.29-1.59v-3.98c0-1.29-.03-2.07-.09-2.36s-.15-.47-.27-.57-.28-.15-.49-.15c-.22,0-.48.06-.79.18l-.18-.42,3.23-1.31h.5v2.27Z"/>
      <path d="m1224.45,627.44v.43c-1.18-.59-2.16-1.29-2.95-2.09-1.12-1.13-1.99-2.47-2.6-4.01s-.91-3.14-.91-4.79c0-2.42.6-4.63,1.79-6.63s2.75-3.42,4.68-4.28v.49c-.96.53-1.75,1.26-2.37,2.18s-1.08,2.09-1.38,3.5-.46,2.89-.46,4.43c0,1.67.13,3.19.39,4.56.2,1.08.45,1.94.74,2.6s.68,1.28,1.17,1.88,1.13,1.18,1.92,1.72Z"/>
      <path d="m1225.31,612.01h5.05v.43c-.32,0-.54.05-.67.16s-.19.25-.19.43.14.48.41.87c.09.12.21.32.39.59l.76,1.22.88-1.22c.56-.77.84-1.26.84-1.46,0-.16-.07-.3-.2-.42s-.35-.17-.64-.17v-.43h3.63v.43c-.38.02-.71.13-1,.32-.38.27-.91.84-1.57,1.73l-1.46,1.96,2.67,3.84c.66.95,1.12,1.51,1.41,1.71s.64.3,1.09.32v.42h-5.06v-.42c.35,0,.62-.08.82-.23.15-.11.22-.25.22-.43s-.25-.63-.75-1.36l-1.57-2.3-1.72,2.3c-.53.71-.8,1.13-.8,1.27,0,.19.09.36.26.51s.44.24.79.25v.42h-3.5v-.42c.28-.04.53-.14.74-.29.3-.23.8-.8,1.5-1.73l2.25-2.99-2.04-2.95c-.58-.84-1.03-1.37-1.34-1.59s-.71-.32-1.19-.32v-.43Z"/>
      <path d="m1237.53,606.57v-.49c1.19.59,2.18,1.28,2.96,2.07,1.12,1.14,1.98,2.48,2.59,4.01s.91,3.13.91,4.8c0,2.42-.6,4.63-1.79,6.63s-2.75,3.42-4.68,4.28v-.43c.96-.54,1.75-1.27,2.37-2.19s1.08-2.09,1.38-3.5.45-2.9.45-4.44c0-1.66-.13-3.18-.39-4.56-.2-1.08-.44-1.94-.73-2.59s-.68-1.27-1.17-1.88-1.12-1.18-1.92-1.72Z"/>
      <path d="m1256.77,610.51c-.03-.54-.14-1.07-.33-1.61-.27-.77-.4-1.29-.4-1.58,0-.41.1-.71.29-.93s.43-.32.71-.32c.24,0,.45.11.63.32s.27.51.27.9c0,.35-.1.84-.31,1.47s-.33,1.21-.38,1.74c.43-.27.82-.61,1.16-1,.53-.62.93-1,1.18-1.15s.52-.22.79-.22.47.09.65.26.26.38.26.63c0,.29-.13.55-.39.77s-.9.45-1.93.68c-.6.13-1.1.29-1.5.46.41.21.9.37,1.49.48.95.17,1.56.39,1.86.64s.44.54.44.84c0,.23-.09.44-.26.61s-.38.26-.62.26-.49-.08-.78-.25-.67-.53-1.15-1.1c-.32-.38-.72-.74-1.2-1.08.02.45.11.93.27,1.45.28.92.42,1.55.42,1.89,0,.31-.09.58-.28.79s-.39.32-.6.32c-.29,0-.55-.11-.79-.34-.16-.16-.25-.43-.25-.79s.09-.83.27-1.35.29-.89.34-1.09.09-.49.13-.88c-.46.3-.86.64-1.21,1.02-.57.64-1,1.05-1.29,1.22-.2.12-.41.19-.63.19-.27,0-.49-.09-.68-.27s-.28-.38-.28-.6c0-.2.08-.4.24-.62s.4-.39.72-.53c.21-.09.69-.22,1.44-.38.48-.1.96-.25,1.42-.45-.42-.21-.93-.38-1.51-.49-.96-.2-1.55-.39-1.78-.55-.35-.26-.53-.57-.53-.94,0-.21.09-.4.26-.58s.38-.26.62-.26c.26,0,.53.08.82.25s.65.49,1.08.99.87.88,1.31,1.15Z"/>
      <path d="m1272.88,606.08v7.85c.87-.95,1.55-1.56,2.06-1.83s1.02-.4,1.52-.4c.61,0,1.13.17,1.57.5s.76.86.97,1.58c.15.5.22,1.41.22,2.74v3.8c0,.68.05,1.14.16,1.39.08.19.21.34.4.45s.53.16,1.03.16v.42h-5.27v-.42h.25c.5,0,.85-.08,1.04-.23s.33-.38.41-.67c.02-.12.04-.49.04-1.1v-3.8c0-1.17-.06-1.94-.18-2.31s-.31-.64-.58-.83-.59-.28-.96-.28-.78.1-1.2.3-.91.61-1.49,1.23v5.67c0,.73.04,1.19.12,1.37s.23.33.46.45.61.18,1.15.18v.42h-5.32v-.42c.48,0,.85-.07,1.12-.22.16-.08.28-.23.38-.45s.14-.66.14-1.34v-9.71c0-1.23-.03-1.98-.09-2.26s-.15-.47-.27-.57-.28-.15-.49-.15c-.16,0-.43.06-.8.19l-.16-.41,3.21-1.31h.54Z"/>
    </g>
  </g>
  <g>
    <rect class="cls-7" x="1100" y="700" width="200" height="100"/>
    <text class="cls-3" transform="translate(1134.7 762.51)"><tspan x="0" y="0">x = x + h</tspan></text>
  </g>
  <g>
    <polygon class="cls-7" points="1100 920 1100 850 1300 850 1300 920 1270 950 1130 950 1100 920"/>
    <text class="cls-2" transform="translate(1126.44 908.34)"><tspan class="cls-13" x="0" y="0">К</tspan><tspan x="14.81" y="0">онец цикла 1</tspan></text>
  </g>
  <g>
    <rect class="cls-7" x="1100" y="1000" width="200" height="100"/>
    <text class="cls-2" transform="translate(1131.53 1043.94)"><tspan x="0" y="0">Возвращение </tspan><tspan x="-16.91" y="28.8">зн</tspan><tspan class="cls-11" x="5.41" y="28.8">а</tspan><tspan x="15.11" y="28.8">чения integral</tspan></text>
  </g>
  <g>
    <path class="cls-7" d="m1430,250h-30v100h30"/>
    <text class="cls-2" transform="translate(1410 279.54)"><tspan x="0" y="0">integral = 0</tspan><tspan x="0" y="28.8">x = a</tspan><tspan x="0" y="57.6">h = 10⁻5</tspan></text>
  </g>
  <g>
    <line class="cls-7" x1="1300" y1="300" x2="1306" y2="300"/>
    <line class="cls-8" x1="1318.57" y1="300" x2="1387.71" y2="300"/>
    <line class="cls-7" x1="1394" y1="300" x2="1400" y2="300"/>
  </g>
  <polyline class="cls-7" points="1000 1150 1000 1125 1200 1125 1200 1100"/>
  <line class="cls-7" x1="1200" y1="350" x2="1200" y2="400"/>
  <line class="cls-7" x1="1200" y1="500" x2="1200" y2="550"/>
  <line class="cls-7" x1="1200" y1="650" x2="1200" y2="700"/>
  <line class="cls-7" x1="1200" y1="800" x2="1200" y2="850"/>
  <line class="cls-7" x1="1200" y1="950" x2="1200" y2="1000"/>
  <polyline class="cls-7" points="300 900 300 950 200 950 200 1000 200 1100 800 1100 800 50 1000 50 1000 100"/>
  <line class="cls-7" x1="1000" y1="1200" x2="1000" y2="1150"/>
</svg>